<?xml version="1.0" encoding="UTF-8"?>
<!DOCTYPE svg PUBLIC "-//W3C//DTD SVG 1.1//EN" "http://www.w3.org/Graphics/SVG/1.1/DTD/svg11.dtd">
<svg version="1.1" xmlns="http://www.w3.org/2000/svg" xmlns:xlink="http://www.w3.org/1999/xlink" x="0" y="0" width="89" height="83" viewBox="0, 0, 89, 83">
  <g id="Layer_2">
    <path d="M-75.687,71.174 L145.313,71.174 L145.313,92.458 L-75.687,92.458 z" fill="#FFFFFF" opacity="0.2"/>
    <g>
      <g>
        <path d="M62.079,53.805 L61.918,53.868 L61.707,53.939 L59.728,54.564 L58.093,55.042 L51.915,56.846 L50.284,57.323 C51.781,56.864 51.144,57.071 52.202,56.716 C52.439,56.641 52.345,56.676 52.488,56.621 L52.838,56.503 L62.079,53.805 z" fill="#0A5B78"/>
        <path d="M84.56,35.431 L84.475,35.598 L83.787,36.95 L83.279,37.756 L81.869,39.95 L81.013,41.014 L79.555,42.76 L78.47,43.848 L76.862,45.381 L75.593,46.422 L73.821,47.786 L72.396,48.748 L70.461,49.954 L68.902,50.817 L66.813,51.86 L65.142,52.607 L62.088,53.801 L52.838,56.502 C55.068,55.669 54.13,56.065 55.679,55.373 C56.809,54.931 56.243,55.181 57.376,54.615 C58.774,53.991 58.082,54.335 59.448,53.579 C60.575,53.016 60.056,53.31 61.013,52.714 C62.228,52.042 61.575,52.435 62.952,51.506 C64.045,50.824 63.582,51.154 64.366,50.551 C65.407,49.848 64.795,50.29 66.16,49.169 C67.187,48.378 66.788,48.736 67.404,48.149 C68.282,47.428 67.71,47.922 69.045,46.584 C69.968,45.704 69.64,46.078 70.098,45.528 C70.834,44.791 70.294,45.352 71.594,43.736 C72.351,42.828 72.109,43.191 72.414,42.717 C73.067,41.905 72.517,42.603 73.855,40.474 C74.31,39.768 74.171,40.034 74.334,39.713 C74.624,39.254 74.352,39.687 75.031,38.345 L75.109,38.191 L84.56,35.431 z" fill="#095975"/>
      </g>
      <path d="M53.406,1.876 C68.554,1.827 81.412,8.794 85.394,19.208 C87.509,25.007 86.874,29.847 84.559,35.432 L75.109,38.191 C77.648,32.771 77.939,27.158 75.947,21.965 C71.963,11.554 59.105,4.586 43.957,4.633 C39.338,4.65 34.707,5.301 30.184,6.574 C29.955,6.639 30.036,6.616 29.939,6.644 C36.039,4.863 32.955,5.763 39.189,3.944 C39.336,3.9 39.486,3.858 39.633,3.815 C44.156,2.542 48.785,1.889 53.406,1.876 z" fill="#095975"/>
      <path d="M60.022,56.436 L50.822,59.122 C50.666,59.167 50.51,59.212 50.353,59.257 C46.9,60.137 48.641,59.738 45.128,60.452 L54.578,57.693 C56.351,57.378 58.109,56.973 59.804,56.497 L60.022,56.436 z M60.215,56.379 C60.156,56.396 60.098,56.414 60.039,56.431 C60.035,56.432 60.032,56.433 60.029,56.434 L60.215,56.379 z" fill="#095975"/>
      <path d="M59.521,54.625 L50.279,57.324 C50.133,57.366 49.988,57.408 49.841,57.449 C46.255,58.357 48.053,57.952 44.448,58.665 L44.392,58.675 L53.831,55.918 L53.843,55.916 C55.265,55.657 54.554,55.794 55.976,55.507 L56.378,55.415 C56.688,55.354 56.523,55.391 56.874,55.302 C58.2,54.998 57.392,55.192 59.289,54.691 C59.512,54.627 59.435,54.65 59.521,54.625 z M50.523,57.104 C50.455,57.124 50.363,57.151 50.295,57.169 C49.625,57.364 48.955,57.561 48.285,57.755 C48.207,57.778 48.103,57.809 48.027,57.831 C47.949,57.853 47.847,57.884 47.771,57.905 L47.703,57.926 C49.205,57.487 48.265,57.762 50.523,57.104 z" fill="#858585"/>
      <path d="M53.832,55.918 L44.382,58.677 L43.964,58.743 L53.414,55.983 z" fill="#808080"/>
      <path d="M47.826,66.491 L38.374,69.25 L43.964,58.743 L53.414,55.983 z" fill="#085773"/>
      <path d="M47.826,66.491 L38.374,69.25 L30.433,59.08 L39.884,56.32 z" fill="#808080"/>
      <path d="M39.884,56.32 L30.433,59.08 L30.065,59.041 L39.515,56.282 z" fill="#808080"/>
      <path d="M48.128,69.806 L38.679,72.564 L29.532,60.845 L38.982,58.085 z" fill="#0068A1"/>
      <g>
        <path d="M36.633,4.764 C34.401,5.599 35.342,5.202 33.785,5.898 C32.659,6.338 33.224,6.088 32.094,6.653 C30.7,7.276 31.389,6.933 30.028,7.686 C28.892,8.255 29.415,7.958 28.449,8.561 C27.25,9.225 27.894,8.837 26.535,9.755 C25.421,10.45 25.893,10.113 25.095,10.728 C24.074,11.418 24.675,10.984 23.334,12.085 C22.28,12.897 22.69,12.529 22.058,13.132 C21.199,13.838 21.76,13.353 20.449,14.667 C19.502,15.571 19.838,15.187 19.369,15.75 C18.645,16.476 19.177,15.923 17.894,17.518 C17.119,18.446 17.367,18.076 17.056,18.56 C16.404,19.37 16.955,18.672 15.612,20.803 C15.161,21.505 15.298,21.242 15.137,21.558 C14.821,22.059 15.118,21.585 14.374,23.053 L14.359,23.082 C13.732,24.523 13.976,23.9 13.592,24.937 C13.506,25.145 13.532,25.058 13.497,25.194 L13.358,25.569 C12.739,27.675 12.944,26.712 12.662,28.439 C12.405,29.44 12.474,28.956 12.425,29.887 C12.192,31.313 12.275,30.484 12.296,32.385 C12.241,33.449 12.2,33.008 12.311,33.713 C12.326,35.038 12.284,34.068 12.767,36.589 C12.895,37.397 12.807,37.094 12.945,37.518 C13.077,38.209 12.955,37.597 13.522,39.298 C16.944,48.231 26.905,54.736 39.515,56.282 L30.065,59.041 C19.248,57.68 8.601,52.451 4.072,42.059 L3.512,40.333 L3.322,39.379 L2.875,36.559 L2.839,35.281 L2.971,32.738 L3.153,31.428 L4.029,28.024 L4.142,27.696 L4.909,25.841 L5.686,24.318 L6.172,23.546 L7.603,21.323 L8.466,20.249 L9.912,18.516 L11.026,17.4 L12.597,15.901 L13.913,14.821 L15.628,13.499 L17.116,12.494 L18.974,11.334 L20.611,10.429 L22.609,9.429 L24.372,8.642 L27.354,7.475 L36.633,4.764 z M8.267,27.446 L6.476,28.072 C7.423,27.756 6.825,27.96 8.267,27.446 z M10.212,26.743 L8.683,27.299 C9.401,27.043 8.891,27.226 10.212,26.743 z" fill="#858585"/>
        <path d="M36.634,4.763 L27.185,7.523 C28.023,7.229 28.873,6.956 29.739,6.703 L39.19,3.945 C38.324,4.196 37.474,4.47 36.634,4.763" fill="#8A8A8A"/>
      </g>
      <path d="M53.408,1.876 C68.556,1.827 81.414,8.794 85.396,19.208 C87.388,24.398 87.097,30.012 84.56,35.432 C80.482,44.182 71.027,51.376 59.291,54.691 C57.523,55.19 55.683,55.602 53.83,55.92 L53.412,55.985 L47.824,66.493 L39.884,56.322 L39.515,56.284 C26.905,54.737 16.944,48.231 13.522,39.3 C11.538,34.11 11.829,28.505 14.359,23.084 C18.444,14.335 27.891,7.13 39.634,3.817 C44.158,2.542 48.787,1.89 53.408,1.876 z" fill="#F0F0F0"/>
      <g>
        <path d="M36.043,2.982 C33.712,3.855 34.696,3.439 33.065,4.169 C31.874,4.636 32.468,4.372 31.286,4.965 C29.85,5.608 30.565,5.252 29.146,6.04 C27.946,6.643 28.496,6.329 27.486,6.962 C26.249,7.649 26.917,7.246 25.502,8.205 C24.324,8.943 24.821,8.586 23.984,9.235 C22.933,9.948 23.555,9.498 22.163,10.645 C21.044,11.511 21.478,11.12 20.811,11.759 C19.93,12.486 20.507,11.985 19.156,13.346 C18.139,14.32 18.499,13.907 17.997,14.512 C17.26,15.253 17.804,14.687 16.492,16.323 C15.644,17.343 15.915,16.936 15.576,17.465 C14.921,18.282 15.475,17.577 14.123,19.728 C13.588,20.561 13.752,20.248 13.56,20.623 C13.291,21.052 13.546,20.644 12.905,21.909 L12.747,22.217 C9.988,28.125 9.689,34.255 11.863,39.947 C12.681,42.093 13.839,44.102 15.315,45.861 C21.093,53.255 29.963,56.671 38.98,58.085 L29.532,60.845 C16.428,59.14 6.057,52.213 2.413,42.706 C1.255,39.14 1.833,41.298 1.01,36.153 C0.745,32.209 1.815,28.563 3.297,24.978 L3.38,24.814 L4.112,23.38 L4.659,22.509 L6.125,20.227 L7.047,19.077 L8.545,17.274 L9.714,16.098 L11.357,14.523 L12.724,13.396 L14.527,12 L16.065,10.956 L18.025,9.727 L19.709,8.793 L21.823,7.731 L23.625,6.924 L26.771,5.69 L36.043,2.982 z" fill="#0068A1"/>
        <path d="M38.609,2.157 C37.109,2.617 37.766,2.404 36.635,2.783 C36.431,2.847 36.511,2.817 36.391,2.864 L36.042,2.981 L26.785,5.684 L26.937,5.625 L27.183,5.542 L29.224,4.896 C35.503,3.063 32.374,3.976 38.609,2.157 z" fill="#0A5B78"/>
      </g>
      <path d="M87.056,18.556 C89.238,24.248 88.931,30.388 86.179,36.285 C81.877,45.498 72.015,53.056 59.804,56.496 C58.111,56.974 56.353,57.377 54.578,57.692 L48.127,69.804 L38.982,58.085 C25.878,56.382 15.508,49.454 11.863,39.948 C9.689,34.256 9.988,28.126 12.747,22.218 C17.049,13.016 26.904,5.458 39.122,2.007 C43.788,0.695 48.579,0.018 53.351,0.001 C69.492,-0.048 82.724,7.235 87.056,18.556 z M84.56,35.431 C87.097,30.011 87.388,24.399 85.396,19.207 C81.414,8.793 68.556,1.826 53.408,1.875 C48.787,1.89 44.158,2.541 39.636,3.814 C27.893,7.126 18.446,14.332 14.361,23.081 C11.831,28.502 11.54,34.105 13.524,39.297 C16.946,48.23 26.907,54.735 39.519,56.281 L39.886,56.319 L47.826,66.49 L53.414,55.982 L53.832,55.917 C55.685,55.601 57.525,55.188 59.293,54.688 C71.027,51.376 80.482,44.181 84.56,35.431" fill="#028BB8"/>
    </g>
    <g>
      <path d="M53.351,0 C69.492,-0.048 82.724,7.236 87.056,18.556 C89.238,24.249 88.931,30.388 86.176,36.289 C85.203,38.377 83.975,40.343 82.498,42.11 C80.68,42.247 81.151,42.217 77.516,42.289 C74.114,42.356 69.926,42.329 66.553,42.316 C60.83,42.295 55.109,42.276 49.387,42.321 C33.098,42.426 16.584,41.055 1.014,36.005 C0.755,32.116 1.833,28.513 3.294,24.979 C3.551,24.431 3.828,23.889 4.123,23.353 C4.222,23.176 4.331,23.003 4.434,22.826 C4.639,22.469 4.845,22.115 5.067,21.765 C5.199,21.558 5.342,21.355 5.48,21.15 C5.689,20.837 5.898,20.526 6.12,20.218 C6.277,20.002 6.443,19.79 6.606,19.576 C6.826,19.288 7.047,18.999 7.279,18.716 C7.456,18.499 7.64,18.286 7.824,18.073 C8.06,17.799 8.295,17.529 8.54,17.261 C8.736,17.047 8.936,16.838 9.137,16.629 C9.388,16.369 9.642,16.11 9.903,15.854 C10.113,15.648 10.326,15.445 10.542,15.243 C10.81,14.993 11.082,14.746 11.359,14.502 C11.583,14.305 11.81,14.106 12.039,13.912 C12.324,13.673 12.615,13.437 12.908,13.203 C13.144,13.015 13.38,12.827 13.622,12.642 C13.927,12.409 14.238,12.185 14.55,11.959 C14.794,11.785 15.037,11.607 15.287,11.435 C15.614,11.211 15.95,10.993 16.285,10.775 C16.533,10.614 16.779,10.45 17.032,10.293 C17.395,10.071 17.766,9.856 18.136,9.64 C18.374,9.499 18.61,9.357 18.853,9.221 C19.291,8.976 19.74,8.741 20.19,8.509 C20.376,8.412 20.557,8.311 20.745,8.216 C21.381,7.898 22.031,7.589 22.69,7.295 C22.892,7.204 23.101,7.122 23.305,7.034 C23.771,6.834 24.235,6.633 24.711,6.445 C24.989,6.336 25.273,6.235 25.553,6.131 C25.899,6.001 26.239,5.865 26.59,5.742 C26.648,5.721 26.707,5.706 26.766,5.685 C27.575,5.405 28.392,5.139 29.224,4.896 C32.375,3.976 35.526,3.056 38.675,2.137 C38.493,2.191 38.319,2.253 38.139,2.31 C38.466,2.208 38.789,2.101 39.122,2.006 C43.789,0.692 48.58,0.017 53.351,0 z M14.534,18.983 C14.529,18.99 14.524,18.996 14.521,19.001 C14.334,19.295 14.164,19.595 13.989,19.893 C14.167,19.587 14.344,19.283 14.534,18.983 z M15.598,17.425 L15.574,17.455 C15.404,17.69 15.247,17.931 15.084,18.168 C15.254,17.919 15.419,17.67 15.598,17.425 z M16.769,15.911 C16.758,15.925 16.747,15.938 16.735,15.951 C16.574,16.149 16.422,16.35 16.268,16.548 C16.434,16.335 16.597,16.121 16.769,15.911 z M18.047,14.442 C18.032,14.46 18.015,14.477 17.998,14.494 C17.849,14.658 17.705,14.827 17.559,14.993 C17.721,14.809 17.88,14.624 18.047,14.442 z M19.428,13.023 C19.406,13.045 19.384,13.065 19.363,13.084 C19.221,13.224 19.086,13.364 18.948,13.505 C19.107,13.345 19.264,13.182 19.428,13.023 z M20.909,11.655 L20.822,11.731 C20.691,11.847 20.566,11.963 20.438,12.079 C20.596,11.937 20.75,11.795 20.909,11.655 z M22.492,10.339 C22.453,10.369 22.414,10.399 22.375,10.432 C22.261,10.522 22.147,10.616 22.033,10.71 C22.185,10.586 22.337,10.461 22.492,10.339 z M24.189,9.066 C24.134,9.106 24.078,9.146 24.023,9.184 C23.922,9.257 23.825,9.331 23.725,9.403 C23.878,9.291 24.033,9.176 24.189,9.066 z M26.064,7.804 L25.768,7.994 C25.68,8.051 25.594,8.109 25.506,8.166 C25.692,8.045 25.876,7.922 26.064,7.804 z M27.515,6.921 C27.514,6.922 27.512,6.923 27.51,6.924 C27.467,6.95 27.423,6.976 27.38,7.001 L27.515,6.921 z M28.304,6.46 L28.294,6.464 L27.987,6.643 L28.304,6.46 z M30.292,5.409 L30.186,5.46 C30.041,5.533 29.901,5.612 29.756,5.686 C29.613,5.76 29.474,5.837 29.331,5.912 C29.651,5.744 29.968,5.571 30.292,5.409 z M32.313,4.461 C32.26,4.484 32.205,4.506 32.153,4.529 C31.887,4.648 31.629,4.778 31.366,4.901 C31.681,4.754 31.993,4.604 32.313,4.461 z M34.351,3.614 C34.293,3.637 34.234,3.656 34.177,3.679 C33.939,3.773 33.705,3.876 33.47,3.975 C33.763,3.854 34.054,3.73 34.351,3.614 z M36.377,2.874 C36.33,2.892 36.28,2.904 36.232,2.921 C36.035,2.991 35.841,3.066 35.646,3.137 C35.889,3.048 36.131,2.958 36.377,2.874 z" fill="#FFFFFF" opacity="0.2"/>
      <path d="M53.351,0 C69.492,-0.048 82.724,7.236 87.056,18.556 C89.238,24.249 88.931,30.388 86.176,36.289 C81.888,45.037 73.795,51.317 64.811,54.756 C59.669,54.715 54.528,54.728 49.386,54.769 C35.277,54.772 20.945,53.963 7.254,50.281 C5.075,48.13 3.617,45.483 2.41,42.708 C0.236,37.016 0.533,30.885 3.294,24.979 C3.551,24.431 3.828,23.889 4.123,23.353 C4.222,23.176 4.331,23.003 4.434,22.826 C4.639,22.469 4.845,22.115 5.067,21.765 C5.199,21.558 5.342,21.355 5.48,21.15 C5.689,20.837 5.898,20.526 6.12,20.218 C6.277,20.002 6.443,19.79 6.606,19.576 C6.826,19.288 7.047,18.999 7.279,18.716 C7.456,18.499 7.64,18.286 7.824,18.073 C8.06,17.799 8.295,17.529 8.54,17.261 C8.736,17.047 8.936,16.838 9.137,16.629 C9.388,16.369 9.642,16.11 9.903,15.854 C10.113,15.648 10.326,15.445 10.542,15.243 C10.81,14.993 11.082,14.746 11.359,14.502 C11.583,14.305 11.81,14.106 12.039,13.912 C12.324,13.673 12.615,13.437 12.908,13.203 C13.144,13.015 13.38,12.827 13.622,12.642 C13.927,12.409 14.238,12.185 14.55,11.959 C14.794,11.785 15.037,11.607 15.287,11.435 C15.614,11.211 15.95,10.993 16.285,10.775 C16.533,10.614 16.779,10.45 17.032,10.293 C17.395,10.071 17.766,9.856 18.136,9.64 C18.374,9.499 18.61,9.357 18.853,9.221 C19.291,8.976 19.74,8.741 20.19,8.509 C20.376,8.412 20.557,8.311 20.745,8.216 C21.381,7.898 22.031,7.589 22.69,7.295 C22.892,7.204 23.101,7.122 23.305,7.034 C23.771,6.834 24.235,6.633 24.711,6.445 C24.989,6.336 25.273,6.235 25.553,6.131 C25.899,6.001 26.239,5.865 26.59,5.742 C26.648,5.721 26.707,5.706 26.766,5.685 C27.575,5.405 28.392,5.139 29.224,4.896 C32.375,3.976 35.526,3.056 38.675,2.137 C38.493,2.191 38.319,2.253 38.139,2.31 C38.466,2.208 38.789,2.101 39.122,2.006 C43.789,0.692 48.58,0.017 53.351,0 z M14.534,18.983 C14.529,18.99 14.524,18.996 14.521,19.001 C14.334,19.295 14.164,19.595 13.989,19.893 C14.167,19.587 14.344,19.283 14.534,18.983 z M15.598,17.425 L15.574,17.455 C15.404,17.69 15.247,17.931 15.084,18.168 C15.254,17.919 15.419,17.67 15.598,17.425 z M16.769,15.911 C16.758,15.925 16.747,15.938 16.735,15.951 C16.574,16.149 16.422,16.35 16.268,16.548 C16.434,16.335 16.597,16.121 16.769,15.911 z M18.047,14.442 C18.032,14.46 18.015,14.477 17.998,14.494 C17.849,14.658 17.705,14.827 17.559,14.993 C17.721,14.809 17.88,14.624 18.047,14.442 z M19.428,13.023 C19.406,13.045 19.384,13.065 19.363,13.084 C19.221,13.224 19.086,13.364 18.948,13.505 C19.107,13.345 19.264,13.182 19.428,13.023 z M20.909,11.655 L20.822,11.731 C20.691,11.847 20.566,11.963 20.438,12.079 C20.596,11.937 20.75,11.795 20.909,11.655 z M22.492,10.339 C22.453,10.369 22.414,10.399 22.375,10.432 C22.261,10.522 22.147,10.616 22.033,10.71 C22.185,10.586 22.337,10.461 22.492,10.339 z M24.189,9.066 C24.134,9.106 24.078,9.146 24.023,9.184 C23.922,9.257 23.825,9.331 23.725,9.403 C23.878,9.291 24.033,9.176 24.189,9.066 z M26.064,7.804 L25.768,7.994 C25.68,8.051 25.594,8.109 25.506,8.166 C25.692,8.045 25.876,7.922 26.064,7.804 z M27.515,6.921 C27.514,6.922 27.512,6.923 27.51,6.924 C27.467,6.95 27.423,6.976 27.38,7.001 L27.515,6.921 z M28.304,6.46 L28.294,6.464 L27.987,6.643 L28.304,6.46 z M30.292,5.409 L30.186,5.46 C30.041,5.533 29.901,5.612 29.756,5.686 C29.613,5.76 29.474,5.837 29.331,5.912 C29.651,5.744 29.968,5.571 30.292,5.409 z M32.313,4.461 C32.26,4.484 32.205,4.506 32.153,4.529 C31.887,4.648 31.629,4.778 31.366,4.901 C31.681,4.754 31.993,4.604 32.313,4.461 z M34.351,3.614 C34.293,3.637 34.234,3.656 34.177,3.679 C33.939,3.773 33.705,3.876 33.47,3.975 C33.763,3.854 34.054,3.73 34.351,3.614 z M36.377,2.874 C36.33,2.892 36.28,2.904 36.232,2.921 C36.035,2.991 35.841,3.066 35.646,3.137 C35.889,3.048 36.131,2.958 36.377,2.874 z" fill="#FFFFFF" opacity="0.2"/>
    </g>
    <path d="M80.548,77.144 C80.548,80.34 64.044,82.937 43.675,82.937 C23.315,82.937 6.804,80.34 6.804,77.144 C6.804,73.943 23.315,71.347 43.675,71.347 C64.044,71.347 80.548,73.942 80.548,77.144 z" fill="url(#Gradient_1)"/>
    <g>
      <path d="M30.981,36.66 C36.444,37.221 45.308,38.218 54.424,36.222 C61.302,34.717 66.031,32.191 75.82,26.9 L77.029,32.45 C70.634,36.892 63.693,40.763 56.103,42.426 C48.256,44.143 40.156,43.457 32.199,42.209 L30.981,36.66 z" fill="#008BB9"/>
      <path d="M52.439,39.502 C59.361,38.135 64.154,35.692 74.07,30.588 L74.742,33.997 C75.513,33.491 76.275,32.976 77.031,32.449 L75.822,26.899 C66.033,32.19 61.302,34.716 54.426,36.221 C45.309,38.216 36.446,37.218 30.982,36.659 L31.67,39.79 C37.119,40.427 44.66,41.037 52.439,39.502 z" fill="#008BB9"/>
      <path d="M56.105,42.425 C48.258,44.142 40.158,43.456 32.201,42.208 L31.671,39.791 C30.69,39.676 29.77,39.562 28.935,39.458 L30.039,45.045 C37.992,46.459 46.096,47.308 53.994,45.744 C61.633,44.238 68.674,40.501 75.174,36.179 L74.742,33.997 C68.988,37.774 62.8,40.961 56.105,42.425 z" fill="#008BB9"/>
      <path d="M56.105,42.425 C62.799,40.961 68.988,37.776 74.742,33.997 L74.07,30.588 C64.154,35.692 59.361,38.135 52.439,39.502 C44.66,41.037 37.119,40.427 31.67,39.791 L32.2,42.208 C40.158,43.456 48.259,44.141 56.105,42.425 z" fill="#264587"/>
      <path d="M31.439,34.356 C27.244,34.821 26.116,37.228 27.462,41.252 C28.608,44.668 31.036,47.001 34.279,48.501 C37.021,49.77 39.914,50.582 42.82,51.348 C43,51.28 43.181,51.222 43.361,51.152 C53.593,47.167 61.033,39.319 64.328,30.332 C55.152,36.486 41.826,33.204 31.439,34.356 z" fill="#FFFFFF" opacity="0.2"/>
      <path d="M60.091,16.514 L61.501,22.94 L54.62,24.44 L53.219,18.015 L60.091,16.514 z" fill="#008BB9"/>
      <path d="M32.587,24.775 L39.458,23.418 L40.355,27.955 L42.876,28.56 L41.226,21.018 L27.869,19.991 L29.017,25.236 L32.858,26.157 z" fill="#F6A200"/>
      <path d="M52.833,27.489 L59.759,26.119 L59.228,23.437 L54.621,24.439 L53.779,20.586 L51.556,21.024 z" fill="#008BB9"/>
      <path d="M40.734,29.88 L40.355,27.955 L32.858,26.157 L33.865,31.238" fill="#F6A200"/>
      <path d="M59.228,23.437 L58.482,19.66 L53.779,20.586 L54.621,24.439 z" fill="#264587"/>
      <path d="M32.587,24.775 L32.858,26.157 L40.355,27.955 L39.458,23.418 z" fill="#EC6619"/>
      <path d="M50.533,11.797 C54.097,10.408 57.997,11.878 59.244,15.079 C60.491,18.28 58.612,22 55.049,23.388 C51.485,24.777 47.585,23.307 46.338,20.106 C45.091,16.905 46.969,13.185 50.533,11.797 z" fill="#FFFFFF" opacity="0.2"/>
      <path d="M40.607,20.404 C41.855,23.604 39.976,27.325 36.414,28.713 C32.852,30.104 28.95,28.632 27.703,25.433 C26.455,22.231 25.978,18.454 31.898,17.122 C35.626,16.283 39.361,17.203 40.607,20.404 z" fill="#FFFFFF" opacity="0.2"/>
    </g>
  </g>
  <defs>
    <radialGradient id="Gradient_1" gradientUnits="userSpaceOnUse" cx="-925.044" cy="103.713" r="52.147" gradientTransform="matrix(0.707, 0, 0, -0.111, 697.867, 88.665)">
      <stop offset="0" stop-color="#C8C8C8"/>
      <stop offset="0.06" stop-color="#CDCDCD" stop-opacity="0.94"/>
      <stop offset="0.465" stop-color="#E9E9E9" stop-opacity="0.535"/>
      <stop offset="0.793" stop-color="#F9F9F9" stop-opacity="0.207"/>
      <stop offset="1" stop-color="#FFFFFF" stop-opacity="0"/>
    </radialGradient>
  </defs>
</svg>